<svg width="37" height="214" viewBox="0 0 37 214" fill="none" xmlns="http://www.w3.org/2000/svg">
<g id="social">
<path id="instagram" fill-rule="evenodd" clip-rule="evenodd" d="M0.130371 99.181C0.130371 93.7071 4.56723 89.27 10.0414 89.27H26.5886C32.0625 89.27 36.4996 93.7068 36.4996 99.181V115.728C36.4996 121.202 32.0628 125.639 26.5886 125.639H10.0414C4.56748 125.639 0.130371 121.202 0.130371 115.728V99.181ZM3.43642 99.1811V115.728C3.43642 119.376 6.39321 122.333 10.0412 122.333H26.5883C30.2365 122.333 33.1931 119.376 33.1931 115.728V99.1811C33.1931 95.533 30.2363 92.5764 26.5883 92.5764H10.0412C6.39304 92.5764 3.43642 95.5332 3.43642 99.1811ZM19.1138 102.477C21.2748 102.798 22.9716 104.495 23.2921 106.656C23.6059 108.772 22.5271 110.851 20.616 111.813C18.7049 112.775 16.3923 112.403 14.8794 110.89C13.3665 109.377 12.9944 107.064 13.9563 105.153C14.9183 103.242 16.9974 102.163 19.1138 102.477ZM26.563 106.171C27.086 109.698 25.288 113.163 22.1028 114.766C18.9176 116.37 15.0634 115.749 12.5419 113.228C10.0204 110.706 9.40019 106.852 11.0034 103.667C12.6066 100.482 16.0717 98.6838 19.5991 99.2069C23.2008 99.7409 26.0289 102.569 26.563 106.171ZM28.2337 97.5357C28.2337 98.4487 27.4936 99.1889 26.5805 99.1889C25.6675 99.1889 24.9274 98.4487 24.9274 97.5357C24.9274 96.6227 25.6675 95.8826 26.5805 95.8826C27.4936 95.8826 28.2337 96.6227 28.2337 97.5357Z" fill="white"/>
<path id="Mask" fill-rule="evenodd" clip-rule="evenodd" d="M36.5833 184.551C36.9169 183.139 35.3733 182.056 34.2211 182.894C33.14 183.68 31.9646 184.315 30.7254 184.785C28.4162 182.655 25.1175 181.997 22.1687 183.157C18.908 184.44 16.765 187.673 16.7884 191.266C12.4138 190.928 8.38062 188.591 5.82981 184.848C5.14816 183.848 3.66826 183.996 3.18655 185.113C2.98776 185.574 2.70795 186.36 2.43266 187.403C1.52258 190.851 1.36335 194.482 2.45424 197.937C3.51078 201.283 5.66448 204.112 9.02796 206.248C6.7112 207.348 4.16342 207.875 1.58969 207.77C-0.0162348 207.704 -0.616983 209.912 0.787962 210.716C16.1082 219.487 33.5747 209.907 33.5747 191.256C33.5739 190.998 33.5621 190.742 33.5394 190.487C35.0128 188.802 36.0606 186.763 36.5833 184.551ZM29.1573 187.617C29.5512 188.084 30.174 188.269 30.7488 188.091C31.1022 187.981 31.452 187.861 31.7976 187.729C31.5096 188.117 31.1947 188.485 30.8548 188.831C30.4921 189.199 30.3318 189.73 30.4275 190.246C30.4895 190.581 30.5213 190.92 30.5224 191.261C30.5224 205.325 19.2471 213.342 7.52889 210.165C9.48874 209.588 11.3599 208.692 13.0676 207.497C14.058 206.804 13.9241 205.26 12.8304 204.759C8.75428 202.892 6.38924 200.236 5.35611 196.964C4.55039 194.412 4.59447 191.646 5.19728 188.965C8.62447 192.562 13.3783 194.581 18.3541 194.448C19.1812 194.426 19.8405 193.728 19.8405 192.876V191.303C19.8105 188.986 21.1749 186.914 23.2567 186.096C25.3385 185.277 27.695 185.884 29.1573 187.617Z" fill="white"/>
<path id="facebook" fill-rule="evenodd" clip-rule="evenodd" d="M23.2743 0C17.7963 0 13.3554 4.44084 13.3554 9.91889V13.2252H10.0491C9.13614 13.2252 8.396 13.9653 8.396 14.8783V21.4909C8.396 22.4039 9.13614 23.1441 10.0491 23.1441H13.3554V34.7161C13.3554 35.6291 14.0956 36.3693 15.0086 36.3693H21.6212C22.5342 36.3693 23.2743 35.6291 23.2743 34.7161V23.1441H26.5806C27.3392 23.1441 28.0004 22.6278 28.1844 21.8919L29.8376 15.2793C30.0984 14.2359 29.3093 13.2252 28.2338 13.2252H23.2743V9.91889H28.2338C29.1468 9.91889 29.8869 9.17875 29.8869 8.26574V1.65315C29.8869 0.74014 29.1468 0 28.2338 0H23.2743ZM23.274 3.30635H26.5803V6.61265H23.274C21.448 6.61265 19.9677 8.09293 19.9677 9.91894V14.8784C19.9677 15.7914 20.7079 16.5315 21.6209 16.5315H26.1162L25.2896 19.8378H21.6209C20.7079 19.8378 19.9677 20.578 19.9677 21.491V33.063H16.6614V21.491C16.6614 20.578 15.9213 19.8378 15.0083 19.8378H11.702V16.5315H15.0083C15.9213 16.5315 16.6614 15.7914 16.6614 14.8784V9.91894C16.6614 6.26691 19.622 3.30635 23.274 3.30635Z" fill="white"/>
<mask id="mask0_4_24" style="mask-type:luminance" maskUnits="userSpaceOnUse" x="8" y="0" width="22" height="37">
<path id="facebook_2" fill-rule="evenodd" clip-rule="evenodd" d="M23.2743 0C17.7963 0 13.3554 4.44084 13.3554 9.91889V13.2252H10.0491C9.13614 13.2252 8.396 13.9653 8.396 14.8783V21.4909C8.396 22.4039 9.13614 23.1441 10.0491 23.1441H13.3554V34.7161C13.3554 35.6291 14.0956 36.3693 15.0086 36.3693H21.6212C22.5342 36.3693 23.2743 35.6291 23.2743 34.7161V23.1441H26.5806C27.3392 23.1441 28.0004 22.6278 28.1844 21.8919L29.8376 15.2793C30.0984 14.2359 29.3093 13.2252 28.2338 13.2252H23.2743V9.91889H28.2338C29.1468 9.91889 29.8869 9.17875 29.8869 8.26574V1.65315C29.8869 0.74014 29.1468 0 28.2338 0H23.2743ZM23.274 3.30635H26.5803V6.61265H23.274C21.448 6.61265 19.9677 8.09293 19.9677 9.91894V14.8784C19.9677 15.7914 20.7079 16.5315 21.6209 16.5315H26.1162L25.2896 19.8378H21.6209C20.7079 19.8378 19.9677 20.578 19.9677 21.491V33.063H16.6614V21.491C16.6614 20.578 15.9213 19.8378 15.0083 19.8378H11.702V16.5315H15.0083C15.9213 16.5315 16.6614 15.7914 16.6614 14.8784V9.91894C16.6614 6.26691 19.622 3.30635 23.274 3.30635Z" fill="white"/>
</mask>
<g mask="url(#mask0_4_24)">
</g>
</g>
</svg>
